<svg width="10" height="10" viewBox="0 0 10 10" fill="none" xmlns="http://www.w3.org/2000/svg">
<path d="M2.70008 0.742616H9.41751V1.77607H2.70008V0.742616ZM0.891543 2.03443C0.685977 2.03443 0.48883 1.95277 0.343473 1.80741C0.198116 1.66205 0.116455 1.46491 0.116455 1.25934C0.116455 1.05377 0.198116 0.856628 0.343473 0.711271C0.48883 0.565914 0.685977 0.484253 0.891543 0.484253C1.09711 0.484253 1.29426 0.565914 1.43961 0.711271C1.58497 0.856628 1.66663 1.05377 1.66663 1.25934C1.66663 1.46491 1.58497 1.66205 1.43961 1.80741C1.29426 1.95277 1.09711 2.03443 0.891543 2.03443ZM0.891543 5.65151C0.685977 5.65151 0.48883 5.56985 0.343473 5.42449C0.198116 5.27913 0.116455 5.08198 0.116455 4.87642C0.116455 4.67085 0.198116 4.47371 0.343473 4.32835C0.48883 4.18299 0.685977 4.10133 0.891543 4.10133C1.09711 4.10133 1.29426 4.18299 1.43961 4.32835C1.58497 4.47371 1.66663 4.67085 1.66663 4.87642C1.66663 5.08198 1.58497 5.27913 1.43961 5.42449C1.29426 5.56985 1.09711 5.65151 0.891543 5.65151ZM0.891543 9.21691C0.685977 9.21691 0.48883 9.13525 0.343473 8.98989C0.198116 8.84454 0.116455 8.64739 0.116455 8.44182C0.116455 8.23626 0.198116 8.03911 0.343473 7.89375C0.48883 7.7484 0.685977 7.66673 0.891543 7.66673C1.09711 7.66673 1.29426 7.7484 1.43961 7.89375C1.58497 8.03911 1.66663 8.23626 1.66663 8.44182C1.66663 8.64739 1.58497 8.84454 1.43961 8.98989C1.29426 9.13525 1.09711 9.21691 0.891543 9.21691ZM2.70008 4.35969H9.41751V5.39314H2.70008V4.35969ZM2.70008 7.97677H9.41751V9.01022H2.70008V7.97677Z" fill="#FF4D00"/>
</svg>
